<svg width="400" height="400" viewBox="0 0 400 400" fill="none" xmlns="http://www.w3.org/2000/svg">
<rect width="400" height="400" fill="white"/>
<path d="M102.126 264.952C91.5656 264.952 81.9656 263.272 73.3256 259.912C64.6856 256.552 57.2936 251.848 51.1496 245.8C45.0056 239.848 40.2536 232.84 36.8936 224.776C33.6296 216.712 31.9976 207.976 31.9976 198.568C31.9976 189.16 33.6296 180.472 36.8936 172.504C40.2536 164.44 45.0056 157.432 51.1496 151.48C57.3896 145.528 64.8776 140.872 73.6136 137.512C82.3496 134.152 92.0456 132.472 102.702 132.472C112.974 132.472 122.286 134.056 130.638 137.224C139.086 140.392 146.334 144.808 152.382 150.472C158.43 156.136 163.086 162.808 166.35 170.488C169.71 178.072 171.39 186.232 171.39 194.968C171.39 203.8 169.998 211.288 167.214 217.432C164.43 223.576 160.638 228.232 155.838 231.4C151.134 234.568 145.758 236.152 139.71 236.152C132.51 236.152 126.798 234.088 122.574 229.96C118.446 225.736 116.382 219.592 116.382 211.528V206.632L116.526 199.432L115.23 176.104V165.16H138.702V209.08C138.702 212.344 139.326 214.6 140.574 215.848C141.822 217.096 143.31 217.72 145.038 217.72C146.862 217.72 148.446 217 149.79 215.56C151.134 214.12 152.19 211.768 152.958 208.504C153.726 205.24 154.11 200.872 154.11 195.4C154.11 188.488 152.862 182.152 150.366 176.392C147.966 170.632 144.51 165.688 139.998 161.56C135.486 157.336 130.062 154.12 123.726 151.912C117.39 149.608 110.382 148.456 102.702 148.456C95.0216 148.456 88.0136 149.704 81.6776 152.2C75.3416 154.696 69.8696 158.2 65.2616 162.712C60.7496 167.224 57.2456 172.552 54.7496 178.696C52.3496 184.744 51.1496 191.368 51.1496 198.568C51.1496 205.864 52.3496 212.584 54.7496 218.728C57.1496 224.872 60.6056 230.2 65.1176 234.712C69.6296 239.224 75.0056 242.728 81.2456 245.224C87.4856 247.72 94.4456 248.968 102.126 248.968C106.83 248.968 111.582 248.44 116.382 247.384C121.278 246.424 126.078 244.84 130.782 242.632L136.11 258.04C131.79 260.152 126.558 261.832 120.414 263.08C114.27 264.328 108.174 264.952 102.126 264.952ZM95.2136 236.152C89.5496 236.152 84.2696 234.664 79.3736 231.688C74.5736 228.712 70.6856 224.536 67.7096 219.16C64.7336 213.688 63.2456 207.304 63.2456 200.008C63.2456 192.712 64.6856 186.376 67.5656 181C70.5416 175.624 74.4296 171.448 79.2296 168.472C84.1256 165.496 89.4536 164.008 95.2136 164.008C101.454 164.008 106.686 165.496 110.91 168.472C115.134 171.352 118.302 175.48 120.414 180.856C122.526 186.136 123.582 192.52 123.582 200.008C123.582 207.4 122.574 213.832 120.558 219.304C118.542 224.68 115.47 228.856 111.342 231.832C107.214 234.712 101.838 236.152 95.2136 236.152ZM101.406 216.568C104.19 216.568 106.638 215.944 108.75 214.696C110.862 213.448 112.542 211.576 113.79 209.08C115.038 206.584 115.662 203.56 115.662 200.008C115.662 196.456 115.038 193.48 113.79 191.08C112.542 188.584 110.862 186.712 108.75 185.464C106.638 184.216 104.19 183.592 101.406 183.592C98.7176 183.592 96.2696 184.264 94.0616 185.608C91.9496 186.856 90.2696 188.68 89.0216 191.08C87.8696 193.48 87.2936 196.456 87.2936 200.008C87.2936 203.464 87.8696 206.44 89.0216 208.936C90.2696 211.432 91.9496 213.352 94.0616 214.696C96.2696 215.944 98.7176 216.568 101.406 216.568ZM238.515 236.296C233.907 236.296 230.019 234.76 226.851 231.688C223.683 228.616 222.099 224.728 222.099 220.024C222.099 215.128 223.683 211.24 226.851 208.36C230.019 205.384 233.907 203.896 238.515 203.896C243.123 203.896 247.011 205.384 250.179 208.36C253.347 211.24 254.931 215.128 254.931 220.024C254.931 224.728 253.347 228.616 250.179 231.688C247.011 234.76 243.123 236.296 238.515 236.296ZM300.898 249.976V235H372.898V249.976H300.898Z" fill="black"/>
</svg>
