<svg width="400" height="400" viewBox="0 0 400 400" fill="none" xmlns="http://www.w3.org/2000/svg">
<g clip-path="url(#clip0_32_3)">
<rect width="400" height="400" fill="black"/>
<path d="M62.3984 182V42H133.998C152.398 42 166.132 45.4 175.198 52.2C184.265 58.8667 188.798 67.6667 188.798 78.6C188.798 85.8 186.865 92.1333 182.998 97.6C179.265 102.933 173.932 107.2 166.998 110.4C160.198 113.467 152.065 115 142.598 115L146.598 105.4C156.465 105.4 165.065 106.933 172.398 110C179.732 112.933 185.398 117.267 189.398 123C193.532 128.6 195.598 135.467 195.598 143.6C195.598 155.733 190.665 165.2 180.798 172C171.065 178.667 156.798 182 137.998 182H62.3984ZM101.598 153.4H134.798C141.598 153.4 146.732 152.267 150.198 150C153.798 147.6 155.598 144 155.598 139.2C155.598 134.4 153.798 130.867 150.198 128.6C146.732 126.2 141.598 125 134.798 125H98.7984V97.6H128.798C135.465 97.6 140.465 96.4667 143.798 94.2C147.132 91.9333 148.798 88.5333 148.798 84C148.798 79.4667 147.132 76.1333 143.798 74C140.465 71.7333 135.465 70.6 128.798 70.6H101.598V153.4ZM285.309 184.8C273.843 184.8 262.776 183.4 252.109 180.6C241.576 177.667 232.976 173.933 226.309 169.4L239.309 140.2C245.576 144.2 252.776 147.533 260.909 150.2C269.176 152.733 277.376 154 285.509 154C290.976 154 295.376 153.533 298.709 152.6C302.043 151.533 304.443 150.2 305.909 148.6C307.509 146.867 308.309 144.867 308.309 142.6C308.309 139.4 306.843 136.867 303.909 135C300.976 133.133 297.176 131.6 292.509 130.4C287.843 129.2 282.643 128 276.909 126.8C271.309 125.6 265.643 124.067 259.909 122.2C254.309 120.333 249.176 117.933 244.509 115C239.843 111.933 236.043 108 233.109 103.2C230.176 98.2667 228.709 92.0667 228.709 84.6C228.709 76.2 230.976 68.6 235.509 61.8C240.176 55 247.109 49.5333 256.309 45.4C265.509 41.2667 276.976 39.2 290.709 39.2C299.909 39.2 308.909 40.2667 317.709 42.4C326.643 44.4 334.576 47.4 341.509 51.4L329.309 80.8C322.643 77.2 316.043 74.5333 309.509 72.8C302.976 70.9333 296.643 70 290.509 70C285.043 70 280.643 70.6 277.309 71.8C273.976 72.8667 271.576 74.3333 270.109 76.2C268.643 78.0667 267.909 80.2 267.909 82.6C267.909 85.6667 269.309 88.1333 272.109 90C275.043 91.7333 278.843 93.2 283.509 94.4C288.309 95.4667 293.509 96.6 299.109 97.8C304.843 99 310.509 100.533 316.109 102.4C321.843 104.133 327.043 106.533 331.709 109.6C336.376 112.533 340.109 116.467 342.909 121.4C345.843 126.2 347.309 132.267 347.309 139.6C347.309 147.733 344.976 155.267 340.309 162.2C335.776 169 328.909 174.467 319.709 178.6C310.643 182.733 299.176 184.8 285.309 184.8ZM143.01 222H182.61V362H143.01V222ZM89.0102 362H49.4102V222H89.0102V362ZM145.81 307.4H86.2102V274.6H145.81V307.4ZM230.543 362V222H294.543C307.343 222 318.343 224.067 327.543 228.2C336.876 232.333 344.076 238.333 349.143 246.2C354.21 253.933 356.743 263.133 356.743 273.8C356.743 284.333 354.21 293.467 349.143 301.2C344.076 308.8 336.876 314.667 327.543 318.8C318.343 322.8 307.343 324.8 294.543 324.8H252.543L270.143 308.2V362H230.543ZM317.143 362L282.343 311H324.543L359.543 362H317.143ZM270.143 312.4L252.543 294.2H292.143C300.41 294.2 306.543 292.4 310.543 288.8C314.676 285.2 316.743 280.2 316.743 273.8C316.743 267.267 314.676 262.2 310.543 258.6C306.543 255 300.41 253.2 292.143 253.2H252.543L270.143 235V312.4Z" fill="white"/>
</g>
<defs>
<clipPath id="clip0_32_3">
<rect width="400" height="400" fill="white"/>
</clipPath>
</defs>
</svg>
